<svg version="1.1" id="Layer_1" xmlns="http://www.w3.org/2000/svg" xmlns:xlink="http://www.w3.org/1999/xlink" x="0px" y="0px"
	 width="100%" viewBox="0 0 1024 1024" enable-background="new 0 0 1024 1024" xml:space="preserve">
<path fill="#000000" opacity="1.000000" stroke="none" 
	d="
M628.813354,902.998779 
	C583.145508,916.746765 536.750366,921.792297 489.711823,919.027893 
	C412.418274,914.485535 341.655884,890.223633 278.604614,845.009399 
	C202.671432,790.557434 150.912857,718.437195 123.268837,629.127197 
	C109.128181,583.442749 104.341347,536.540283 107.017647,488.994141 
	C111.050575,417.346619 132.609283,351.076080 172.085724,291.135376 
	C215.940277,224.546997 274.200958,174.388245 347.108856,141.521774 
	C382.260559,125.675545 418.909088,115.028763 457.078705,109.977158 
	C492.871735,105.240082 528.782654,104.942268 564.658447,109.525322 
	C638.608765,118.972298 705.042725,146.699509 763.480469,192.848770 
	C833.939453,248.491425 881.426575,319.709015 905.261841,406.418549 
	C912.508972,432.782532 916.854187,459.642609 918.458801,486.989319 
	C924.731384,593.890503 893.981262,689.076416 826.468750,771.797852 
	C774.421753,835.569763 708.088501,878.947693 628.813354,902.998779 
M200.784988,308.243805 
	C200.171051,309.235077 199.569305,310.234131 198.941406,311.216461 
	C160.301712,371.670319 140.702179,437.894714 139.510818,509.507874 
	C139.027817,538.540771 142.347244,567.284546 148.821838,595.637024 
	C163.023422,657.826477 191.026321,713.023071 233.747849,760.360718 
	C308.102295,842.749329 401.422546,884.077209 512.052490,886.451294 
	C535.353271,886.951355 558.519836,883.951355 581.506104,879.714539 
	C632.709290,870.276672 679.842407,851.016052 722.693237,821.516113 
	C786.063171,777.890137 832.338806,720.449768 860.827026,648.884949 
	C878.275024,605.054077 886.019470,559.278381 886.423279,512.310669 
	C886.565857,495.725769 885.167114,479.084564 882.850830,462.548676 
	C877.522705,424.511932 867.093628,388.050171 850.588623,353.346161 
	C819.097412,287.131256 771.792542,234.857346 709.908508,196.027222 
	C659.737793,164.546783 604.859863,146.311050 545.684387,141.090195 
	C508.052032,137.770020 470.761841,139.802017 434.007294,148.113724 
	C335.359589,170.422012 258.152039,224.338013 200.784988,308.243805 
z"/>
<path fill="#000000" opacity="1.000000" stroke="none" 
	d="
M510.000000,616.723511 
	C578.973816,616.709900 647.447693,616.719788 715.921509,616.654846 
	C724.223633,616.646973 730.544556,619.858704 734.120605,627.398071 
	C737.627563,634.792114 736.789795,642.058105 731.821899,648.568054 
	C727.696655,653.973877 721.848877,656.173645 715.184631,656.200134 
	C701.190186,656.255615 687.195374,656.223877 673.200745,656.222839 
	C555.412415,656.214294 437.624084,656.209961 319.835754,656.174866 
	C315.352478,656.173523 310.868958,656.423523 306.387756,655.561951 
	C296.184082,653.600098 288.854462,644.427612 289.800568,634.517700 
	C290.828217,623.753418 298.544189,616.709656 309.576538,616.706604 
	C376.217682,616.688110 442.858856,616.713623 510.000000,616.723511 
z"/>
<path fill="#000000" opacity="1.000000" stroke="none" 
	d="
M341.015503,597.291260 
	C336.464264,596.956360 332.285675,598.077515 327.498138,596.196838 
	C333.893951,581.741943 340.866180,568.333862 356.311829,561.983704 
	C362.746490,559.338196 369.276062,560.679810 375.222809,563.520020 
	C391.624573,571.353699 405.839874,568.068542 418.745819,556.012817 
	C423.243591,551.811279 427.891022,547.760498 433.070557,544.354309 
	C445.740417,536.022339 458.502045,536.349182 471.063660,544.253601 
	C478.526215,548.949402 485.490814,554.429321 492.845337,559.306274 
	C500.076447,564.101440 507.557709,568.523987 516.395752,569.716736 
	C528.574097,571.360168 538.956848,567.081787 548.455078,559.882385 
	C554.028137,555.658203 559.550415,551.347290 565.326538,547.414429 
	C578.473572,538.463013 591.701050,538.321350 604.827515,547.622437 
	C608.768494,550.414917 612.799927,553.080444 616.719604,555.901917 
	C625.760803,562.410034 635.353027,563.249817 645.565186,559.021240 
	C648.942383,557.622864 652.425171,556.472046 655.885864,555.284241 
	C663.601868,552.635559 670.552795,554.373657 676.126770,559.994507 
	C686.241882,570.194824 692.068481,583.114441 699.262695,597.290588 
	C579.075684,597.290588 460.294067,597.290588 341.015503,597.291260 
z"/>
<path fill="#000000" opacity="1.000000" stroke="none" 
	d="
M489.728455,394.004547 
	C489.731750,389.673920 489.616760,385.837555 489.764618,382.011383 
	C490.011108,375.633881 493.862183,371.788055 500.196625,371.703857 
	C508.358490,371.595306 516.524719,371.588745 524.685974,371.724091 
	C531.652039,371.839600 535.323669,375.688904 535.336365,382.725922 
	C535.371033,401.884949 535.468872,421.045441 535.250366,440.202057 
	C535.200073,444.620270 536.584473,446.190460 540.949219,445.895020 
	C545.427856,445.591827 549.941406,445.823547 554.439331,445.782104 
	C559.595032,445.734619 564.038879,446.951843 566.340149,452.195587 
	C568.697937,457.568115 566.692322,461.854980 563.074951,465.812164 
	C552.849365,476.998444 542.658142,488.216187 532.446716,499.415405 
	C528.519531,503.722443 524.685425,508.121826 520.608765,512.283142 
	C515.611023,517.384705 509.612030,517.710754 504.797729,512.517517 
	C489.850861,496.394043 475.155731,480.036194 460.450165,463.690796 
	C457.238495,460.121033 456.863434,455.910034 459.000885,451.586823 
	C460.999268,447.544830 464.565765,445.979645 468.823700,445.888336 
	C473.985718,445.777679 479.160004,445.700745 484.314209,445.934265 
	C488.380798,446.118500 489.839539,444.667175 489.786041,440.484100 
	C489.590118,425.159454 489.720642,409.830627 489.728455,394.004547 
z"/>
</svg>